<?xml version="1.0" standalone="no"?><!DOCTYPE svg PUBLIC "-//W3C//DTD SVG 1.1//EN" "http://www.w3.org/Graphics/SVG/1.1/DTD/svg11.dtd"><svg t="1705651003657" class="icon" viewBox="0 0 1394 1024" version="1.1" xmlns="http://www.w3.org/2000/svg" p-id="5472" xmlns:xlink="http://www.w3.org/1999/xlink" width="272.265625" height="200"><path d="M1394.382979 467.074723c-80.787064 8.388085-145.364426 53.444085-193.688511 135.146213-6.601532 10.196426-16.340426 27.88766-29.282042 53.09549-36.319319 66.95217-67.540426 118.130383-93.619745 153.534638-45.622468 60.350638-96.691745 107.236766-153.20783 140.593021-70.808511 41.090723-152.162043 61.614298-244.082383 61.614298-89.175149 0-166.803064-15.882894-232.84017-47.648681a402.540936 402.540936 0 0 1-131.072-100.439149c-20.414638-24.053106-41.395745-55.601021-62.965107-94.621957-8.170213-14.074553-13.725957-23.15983-16.689021-27.234043-2.723404-4.096-8.736681-8.518809-18.03983-13.290213-6.579745-2.723404-17.255489-7.843404-32.005446-15.316425-34.489191-15.882894-61.04783-29.848511-79.654128-41.875064-32.462979-22.222979-57.082553-47.321872-73.858723-75.231319C11.111489 559.104 0 516.096 0 466.377532c0-49.696681 12.593021-91.789617 37.779064-126.300596 19.521362-26.776511 47.779404-49.457021 84.774127-68.085106 21.569362-10.196426 51.853617-20.981106 90.896341-32.332256 29.717787-9.303149 47.779404-16.231489 54.119489-20.763234 4.771404-3.638468 8.97634-9.651745 12.593022-18.039829 1.830128-4.771404 5.12-14.074553 9.891404-27.909447 10.196426-31.547915 20.87217-56.189277 31.983659-73.880511 19.521362-29.739574 46.973277-52.550809 82.377532-68.411915C448.925957 10.196426 507.490043 0 580.106894 0c75.340255 0 136.279149 10.675745 182.794893 32.005447 36.101447 15.882894 63.901957 39.15166 83.423319 69.78451 11.111489 17.691234 21.329702 43.225872 30.632851 76.603915 6.579745 21.329702 11.917617 34.598128 15.99183 39.827064 4.313872 4.989277 12.026553 10.327149 23.15983 15.99183 5.664681 2.723404 16.77617 7.364085 33.356255 13.94383 28.824511 11.133277 50.720681 20.893957 65.710298 29.282042 26.101106 14.989617 45.600681 32.680851 58.542298 53.117277 16.797957 24.96817 25.20783 55.143489 25.20783 90.547745 0 39.957787-10.24 75.688851-30.654638 107.236766-15.882894 25.186043-38.236596 47.997277-67.061107 68.411914-16.77617 11.133277-40.96 24.619574-72.507915 40.524256-18.606298 9.303149-30.175319 15.773957-34.728851 19.390638-8.388085 5.686468-20.08783 15.447149-35.077447 29.282043-17.691234 14.989617-31.635064 25.643574-41.853276 32.027234-15.665021 11.329362-31.438979 19.281702-47.321873 23.813446-57.649021 13.834894-112.443915 14.292426-164.428255 1.350809-48.324085-12.026553-87.148936-34.271319-116.409191-66.712511-29.282043-32.680851-43.923064-69.457702-43.923064-110.308766 0-40.851064 10.893617-74.99166 32.680851-102.465361 21.787234-27.451915 55.034553-49.130213 99.741957-65.013107-17.713021 45.622468-21.89617 78.651915-12.593021 99.066553 6.579745 17.691234 15.665021 31.874723 27.234043 42.550469s27.125106 19.739234 46.62468 27.234042c29.739574 8.388085 57.888681 7.494809 84.425532-2.723404 26.580426-10.218213 46.537532-27.582638 59.914894-52.07149 13.399149-24.750298 18.279489-50.176 14.641021-76.255319-4.749617-29.739574-20.196766-55.731745-46.297872-77.97651-25.861447-22.462638-56.733957-37.779064-92.595745-45.971064-35.622128-8.388085-72.725787-9.281362-111.310978-2.701617-38.563404 6.340085-73.749787 19.281702-105.537362 38.803064-23.138043 14.749957-44.010213 34.946723-62.638298 60.590298-18.606298 25.643574-31.656851 52.877617-39.15166 81.702127-13.834894 50.154213-13.617021 99.872681 0.697192 149.11183a282.711149 282.711149 0 0 0 77.606128 126.976c30.632851 28.824511 67.300766 51.069277 109.96017 66.734298 46.515745 16.77617 97.236426 25.186043 152.162042 25.186042 62.202553 0 116.997447-11.111489 164.428256-33.356255 39.957787-17.713021 77.170383-44.27166 111.659574-79.675915 20.436426-21.329702 47.88834-55.252426 82.399319-101.789957 25.861447-35.164596 45.84034-60.699234 59.914894-76.582128 66.930383-76.255319 165.430468-109.742298 295.478468-100.439149z" p-id="5473"></path></svg>